ISO-10303-21;
HEADER;
/* Generated by software containing ST-Developer
 * from STEP Tools, Inc. (www.steptools.com) 
 */

FILE_DESCRIPTION(
/* description */ (''),
/* implementation_level */ '2;1');

FILE_NAME(
/* name */ 'MK3 final.step',
/* time_stamp */ '2026-02-17T10:20:26+01:00',
/* author */ (''),
/* organization */ (''),
/* preprocessor_version */ 'ST-DEVELOPER v20.1',
/* originating_system */ 'Autodesk Translation Framework v14.24.0.0',
/* authorisation */ '');

FILE_SCHEMA (('AUTOMOTIVE_DESIGN { 1 0 10303 214 3 1 1 }'));
ENDSEC;

DATA;
#10=MECHANICAL_DESIGN_GEOMETRIC_PRESENTATION_REPRESENTATION('',(#17),#973);
#11=ITEM_DEFINED_TRANSFORMATION($,$,#585,#640);
#12=(
REPRESENTATION_RELATIONSHIP($,$,#984,#983)
REPRESENTATION_RELATIONSHIP_WITH_TRANSFORMATION(#11)
SHAPE_REPRESENTATION_RELATIONSHIP()
);
#13=CONTEXT_DEPENDENT_SHAPE_REPRESENTATION(#12,#982);
#14=NEXT_ASSEMBLY_USAGE_OCCURRENCE('MK3:1','MK3:1','MK3:1',#986,#987,
'MK3:1');
#15=SHAPE_REPRESENTATION_RELATIONSHIP('SRR','None',#984,#16);
#16=ADVANCED_BREP_SHAPE_REPRESENTATION('',(#18),#972);
#17=STYLED_ITEM('',(#998),#18);
#18=MANIFOLD_SOLID_BREP('Corpo1',#571);
#19=CYLINDRICAL_SURFACE('',#596,5.);
#20=CYLINDRICAL_SURFACE('',#607,5.);
#21=CYLINDRICAL_SURFACE('',#609,5.);
#22=CYLINDRICAL_SURFACE('',#611,5.);
#23=CYLINDRICAL_SURFACE('',#617,3.00000000000001);
#24=CYLINDRICAL_SURFACE('',#619,3.);
#25=CYLINDRICAL_SURFACE('',#621,2.99999999999999);
#26=CYLINDRICAL_SURFACE('',#623,3.);
#27=CYLINDRICAL_SURFACE('',#628,1.7);
#28=CYLINDRICAL_SURFACE('',#631,1.7);
#29=CYLINDRICAL_SURFACE('',#634,1.7);
#30=CYLINDRICAL_SURFACE('',#637,1.7);
#31=FACE_BOUND('',#99,.T.);
#32=FACE_BOUND('',#100,.T.);
#33=FACE_BOUND('',#101,.T.);
#34=FACE_BOUND('',#102,.T.);
#35=FACE_BOUND('',#106,.T.);
#36=FACE_BOUND('',#107,.T.);
#37=FACE_BOUND('',#108,.T.);
#38=FACE_BOUND('',#109,.T.);
#39=FACE_BOUND('',#129,.T.);
#40=FACE_BOUND('',#132,.T.);
#41=FACE_BOUND('',#135,.T.);
#42=FACE_BOUND('',#138,.T.);
#43=CIRCLE('',#588,5.00000000000002);
#44=CIRCLE('',#589,5.0000001683831);
#45=CIRCLE('',#590,5.00000000000001);
#46=CIRCLE('',#591,5.00000000000002);
#47=CIRCLE('',#592,3.);
#48=CIRCLE('',#593,3.);
#49=CIRCLE('',#594,3.00000000000001);
#50=CIRCLE('',#595,3.);
#51=CIRCLE('',#597,5.);
#52=CIRCLE('',#600,5.);
#53=CIRCLE('',#601,5.);
#54=CIRCLE('',#602,5.);
#55=CIRCLE('',#603,1.7);
#56=CIRCLE('',#604,1.7);
#57=CIRCLE('',#605,1.7);
#58=CIRCLE('',#606,1.7);
#59=CIRCLE('',#618,3.00000000000001);
#60=CIRCLE('',#620,3.);
#61=CIRCLE('',#622,2.99999999999999);
#62=CIRCLE('',#624,3.);
#63=CIRCLE('',#629,1.7);
#64=CIRCLE('',#632,1.7);
#65=CIRCLE('',#635,1.7);
#66=CIRCLE('',#638,1.7);
#67=FACE_OUTER_BOUND('',#97,.T.);
#68=FACE_OUTER_BOUND('',#98,.T.);
#69=FACE_OUTER_BOUND('',#103,.T.);
#70=FACE_OUTER_BOUND('',#104,.T.);
#71=FACE_OUTER_BOUND('',#105,.T.);
#72=FACE_OUTER_BOUND('',#110,.T.);
#73=FACE_OUTER_BOUND('',#111,.T.);
#74=FACE_OUTER_BOUND('',#112,.T.);
#75=FACE_OUTER_BOUND('',#113,.T.);
#76=FACE_OUTER_BOUND('',#114,.T.);
#77=FACE_OUTER_BOUND('',#115,.T.);
#78=FACE_OUTER_BOUND('',#116,.T.);
#79=FACE_OUTER_BOUND('',#117,.T.);
#80=FACE_OUTER_BOUND('',#118,.T.);
#81=FACE_OUTER_BOUND('',#119,.T.);
#82=FACE_OUTER_BOUND('',#120,.T.);
#83=FACE_OUTER_BOUND('',#121,.T.);
#84=FACE_OUTER_BOUND('',#122,.T.);
#85=FACE_OUTER_BOUND('',#123,.T.);
#86=FACE_OUTER_BOUND('',#124,.T.);
#87=FACE_OUTER_BOUND('',#125,.T.);
#88=FACE_OUTER_BOUND('',#126,.T.);
#89=FACE_OUTER_BOUND('',#127,.T.);
#90=FACE_OUTER_BOUND('',#128,.T.);
#91=FACE_OUTER_BOUND('',#130,.T.);
#92=FACE_OUTER_BOUND('',#131,.T.);
#93=FACE_OUTER_BOUND('',#133,.T.);
#94=FACE_OUTER_BOUND('',#134,.T.);
#95=FACE_OUTER_BOUND('',#136,.T.);
#96=FACE_OUTER_BOUND('',#137,.T.);
#97=EDGE_LOOP('',(#371,#372,#373,#374));
#98=EDGE_LOOP('',(#375,#376,#377,#378,#379,#380,#381,#382));
#99=EDGE_LOOP('',(#383));
#100=EDGE_LOOP('',(#384));
#101=EDGE_LOOP('',(#385));
#102=EDGE_LOOP('',(#386));
#103=EDGE_LOOP('',(#387,#388,#389,#390));
#104=EDGE_LOOP('',(#391,#392,#393,#394,#395,#396));
#105=EDGE_LOOP('',(#397,#398,#399,#400,#401,#402,#403,#404,#405,#406,#407,
#408,#409,#410,#411,#412));
#106=EDGE_LOOP('',(#413));
#107=EDGE_LOOP('',(#414));
#108=EDGE_LOOP('',(#415));
#109=EDGE_LOOP('',(#416));
#110=EDGE_LOOP('',(#417,#418,#419,#420,#421,#422,#423,#424));
#111=EDGE_LOOP('',(#425,#426,#427,#428,#429,#430));
#112=EDGE_LOOP('',(#431,#432,#433,#434));
#113=EDGE_LOOP('',(#435,#436,#437,#438,#439,#440,#441,#442));
#114=EDGE_LOOP('',(#443,#444,#445,#446));
#115=EDGE_LOOP('',(#447,#448,#449,#450));
#116=EDGE_LOOP('',(#451,#452,#453,#454));
#117=EDGE_LOOP('',(#455,#456,#457,#458));
#118=EDGE_LOOP('',(#459,#460,#461,#462));
#119=EDGE_LOOP('',(#463,#464,#465,#466,#467,#468,#469,#470));
#120=EDGE_LOOP('',(#471,#472,#473,#474));
#121=EDGE_LOOP('',(#475,#476,#477,#478));
#122=EDGE_LOOP('',(#479,#480,#481,#482));
#123=EDGE_LOOP('',(#483,#484,#485,#486));
#124=EDGE_LOOP('',(#487,#488,#489,#490));
#125=EDGE_LOOP('',(#491,#492,#493,#494));
#126=EDGE_LOOP('',(#495,#496,#497,#498));
#127=EDGE_LOOP('',(#499,#500,#501,#502));
#128=EDGE_LOOP('',(#503));
#129=EDGE_LOOP('',(#504));
#130=EDGE_LOOP('',(#505,#506,#507,#508));
#131=EDGE_LOOP('',(#509));
#132=EDGE_LOOP('',(#510));
#133=EDGE_LOOP('',(#511,#512,#513,#514));
#134=EDGE_LOOP('',(#515));
#135=EDGE_LOOP('',(#516));
#136=EDGE_LOOP('',(#517,#518,#519,#520));
#137=EDGE_LOOP('',(#521));
#138=EDGE_LOOP('',(#522));
#139=LINE('',#812,#191);
#140=LINE('',#814,#192);
#141=LINE('',#816,#193);
#142=LINE('',#817,#194);
#143=LINE('',#823,#195);
#144=LINE('',#827,#196);
#145=LINE('',#831,#197);
#146=LINE('',#834,#198);
#147=LINE('',#847,#199);
#148=LINE('',#848,#200);
#149=LINE('',#851,#201);
#150=LINE('',#853,#202);
#151=LINE('',#855,#203);
#152=LINE('',#856,#204);
#153=LINE('',#859,#205);
#154=LINE('',#863,#206);
#155=LINE('',#865,#207);
#156=LINE('',#867,#208);
#157=LINE('',#869,#209);
#158=LINE('',#871,#210);
#159=LINE('',#873,#211);
#160=LINE('',#875,#212);
#161=LINE('',#877,#213);
#162=LINE('',#879,#214);
#163=LINE('',#883,#215);
#164=LINE('',#895,#216);
#165=LINE('',#897,#217);
#166=LINE('',#898,#218);
#167=LINE('',#900,#219);
#168=LINE('',#902,#220);
#169=LINE('',#905,#221);
#170=LINE('',#907,#222);
#171=LINE('',#908,#223);
#172=LINE('',#909,#224);
#173=LINE('',#911,#225);
#174=LINE('',#915,#226);
#175=LINE('',#916,#227);
#176=LINE('',#919,#228);
#177=LINE('',#920,#229);
#178=LINE('',#922,#230);
#179=LINE('',#924,#231);
#180=LINE('',#925,#232);
#181=LINE('',#928,#233);
#182=LINE('',#932,#234);
#183=LINE('',#936,#235);
#184=LINE('',#940,#236);
#185=LINE('',#943,#237);
#186=LINE('',#944,#238);
#187=LINE('',#950,#239);
#188=LINE('',#955,#240);
#189=LINE('',#960,#241);
#190=LINE('',#965,#242);
#191=VECTOR('',#647,10.);
#192=VECTOR('',#648,10.);
#193=VECTOR('',#649,10.);
#194=VECTOR('',#650,10.);
#195=VECTOR('',#655,10.);
#196=VECTOR('',#658,10.);
#197=VECTOR('',#661,10.);
#198=VECTOR('',#664,10.);
#199=VECTOR('',#677,10.);
#200=VECTOR('',#678,10.);
#201=VECTOR('',#681,10.);
#202=VECTOR('',#682,10.);
#203=VECTOR('',#683,10.);
#204=VECTOR('',#684,10.);
#205=VECTOR('',#687,10.);
#206=VECTOR('',#690,10.);
#207=VECTOR('',#691,10.);
#208=VECTOR('',#692,10.);
#209=VECTOR('',#693,10.);
#210=VECTOR('',#694,10.);
#211=VECTOR('',#695,10.);
#212=VECTOR('',#696,10.);
#213=VECTOR('',#697,10.);
#214=VECTOR('',#698,10.);
#215=VECTOR('',#701,10.);
#216=VECTOR('',#714,10.);
#217=VECTOR('',#715,10.);
#218=VECTOR('',#716,10.);
#219=VECTOR('',#719,10.);
#220=VECTOR('',#722,10.);
#221=VECTOR('',#725,10.);
#222=VECTOR('',#726,10.);
#223=VECTOR('',#727,10.);
#224=VECTOR('',#728,10.);
#225=VECTOR('',#731,10.);
#226=VECTOR('',#736,10.);
#227=VECTOR('',#737,10.);
#228=VECTOR('',#740,10.);
#229=VECTOR('',#741,10.);
#230=VECTOR('',#744,10.);
#231=VECTOR('',#747,10.);
#232=VECTOR('',#748,10.);
#233=VECTOR('',#751,3.00000000000001);
#234=VECTOR('',#756,3.);
#235=VECTOR('',#761,2.99999999999999);
#236=VECTOR('',#766,3.);
#237=VECTOR('',#771,10.);
#238=VECTOR('',#772,10.);
#239=VECTOR('',#781,1.7);
#240=VECTOR('',#788,1.7);
#241=VECTOR('',#795,1.7);
#242=VECTOR('',#802,1.7);
#243=VERTEX_POINT('',#810);
#244=VERTEX_POINT('',#811);
#245=VERTEX_POINT('',#813);
#246=VERTEX_POINT('',#815);
#247=VERTEX_POINT('',#819);
#248=VERTEX_POINT('',#820);
#249=VERTEX_POINT('',#822);
#250=VERTEX_POINT('',#824);
#251=VERTEX_POINT('',#826);
#252=VERTEX_POINT('',#828);
#253=VERTEX_POINT('',#830);
#254=VERTEX_POINT('',#832);
#255=VERTEX_POINT('',#835);
#256=VERTEX_POINT('',#837);
#257=VERTEX_POINT('',#839);
#258=VERTEX_POINT('',#841);
#259=VERTEX_POINT('',#844);
#260=VERTEX_POINT('',#845);
#261=VERTEX_POINT('',#850);
#262=VERTEX_POINT('',#852);
#263=VERTEX_POINT('',#854);
#264=VERTEX_POINT('',#858);
#265=VERTEX_POINT('',#860);
#266=VERTEX_POINT('',#862);
#267=VERTEX_POINT('',#864);
#268=VERTEX_POINT('',#866);
#269=VERTEX_POINT('',#868);
#270=VERTEX_POINT('',#870);
#271=VERTEX_POINT('',#872);
#272=VERTEX_POINT('',#874);
#273=VERTEX_POINT('',#876);
#274=VERTEX_POINT('',#878);
#275=VERTEX_POINT('',#880);
#276=VERTEX_POINT('',#882);
#277=VERTEX_POINT('',#885);
#278=VERTEX_POINT('',#887);
#279=VERTEX_POINT('',#889);
#280=VERTEX_POINT('',#891);
#281=VERTEX_POINT('',#894);
#282=VERTEX_POINT('',#896);
#283=VERTEX_POINT('',#904);
#284=VERTEX_POINT('',#906);
#285=VERTEX_POINT('',#914);
#286=VERTEX_POINT('',#918);
#287=VERTEX_POINT('',#927);
#288=VERTEX_POINT('',#931);
#289=VERTEX_POINT('',#935);
#290=VERTEX_POINT('',#939);
#291=VERTEX_POINT('',#948);
#292=VERTEX_POINT('',#953);
#293=VERTEX_POINT('',#958);
#294=VERTEX_POINT('',#963);
#295=EDGE_CURVE('',#243,#244,#139,.T.);
#296=EDGE_CURVE('',#245,#243,#140,.T.);
#297=EDGE_CURVE('',#246,#245,#141,.T.);
#298=EDGE_CURVE('',#244,#246,#142,.T.);
#299=EDGE_CURVE('',#247,#248,#43,.T.);
#300=EDGE_CURVE('',#248,#249,#143,.T.);
#301=EDGE_CURVE('',#249,#250,#44,.T.);
#302=EDGE_CURVE('',#250,#251,#144,.T.);
#303=EDGE_CURVE('',#251,#252,#45,.T.);
#304=EDGE_CURVE('',#252,#253,#145,.T.);
#305=EDGE_CURVE('',#253,#254,#46,.T.);
#306=EDGE_CURVE('',#254,#247,#146,.T.);
#307=EDGE_CURVE('',#255,#255,#47,.T.);
#308=EDGE_CURVE('',#256,#256,#48,.T.);
#309=EDGE_CURVE('',#257,#257,#49,.T.);
#310=EDGE_CURVE('',#258,#258,#50,.T.);
#311=EDGE_CURVE('',#259,#260,#51,.T.);
#312=EDGE_CURVE('',#260,#248,#147,.T.);
#313=EDGE_CURVE('',#247,#259,#148,.T.);
#314=EDGE_CURVE('',#261,#260,#149,.T.);
#315=EDGE_CURVE('',#262,#261,#150,.T.);
#316=EDGE_CURVE('',#262,#263,#151,.T.);
#317=EDGE_CURVE('',#263,#249,#152,.T.);
#318=EDGE_CURVE('',#259,#264,#153,.T.);
#319=EDGE_CURVE('',#265,#264,#52,.T.);
#320=EDGE_CURVE('',#265,#266,#154,.T.);
#321=EDGE_CURVE('',#266,#267,#155,.T.);
#322=EDGE_CURVE('',#267,#268,#156,.T.);
#323=EDGE_CURVE('',#268,#269,#157,.T.);
#324=EDGE_CURVE('',#269,#270,#158,.T.);
#325=EDGE_CURVE('',#270,#271,#159,.T.);
#326=EDGE_CURVE('',#271,#272,#160,.T.);
#327=EDGE_CURVE('',#272,#273,#161,.T.);
#328=EDGE_CURVE('',#273,#274,#162,.T.);
#329=EDGE_CURVE('',#275,#274,#53,.T.);
#330=EDGE_CURVE('',#275,#276,#163,.T.);
#331=EDGE_CURVE('',#261,#276,#54,.T.);
#332=EDGE_CURVE('',#277,#277,#55,.T.);
#333=EDGE_CURVE('',#278,#278,#56,.T.);
#334=EDGE_CURVE('',#279,#279,#57,.T.);
#335=EDGE_CURVE('',#280,#280,#58,.T.);
#336=EDGE_CURVE('',#276,#281,#164,.T.);
#337=EDGE_CURVE('',#282,#281,#165,.T.);
#338=EDGE_CURVE('',#282,#250,#166,.T.);
#339=EDGE_CURVE('',#251,#275,#167,.T.);
#340=EDGE_CURVE('',#274,#252,#168,.T.);
#341=EDGE_CURVE('',#273,#283,#169,.T.);
#342=EDGE_CURVE('',#283,#284,#170,.T.);
#343=EDGE_CURVE('',#284,#266,#171,.T.);
#344=EDGE_CURVE('',#253,#265,#172,.T.);
#345=EDGE_CURVE('',#264,#254,#173,.T.);
#346=EDGE_CURVE('',#284,#285,#174,.T.);
#347=EDGE_CURVE('',#267,#285,#175,.T.);
#348=EDGE_CURVE('',#286,#272,#176,.T.);
#349=EDGE_CURVE('',#286,#283,#177,.T.);
#350=EDGE_CURVE('',#285,#286,#178,.T.);
#351=EDGE_CURVE('',#246,#271,#179,.T.);
#352=EDGE_CURVE('',#245,#268,#180,.T.);
#353=EDGE_CURVE('',#257,#287,#181,.T.);
#354=EDGE_CURVE('',#287,#287,#59,.T.);
#355=EDGE_CURVE('',#255,#288,#182,.T.);
#356=EDGE_CURVE('',#288,#288,#60,.T.);
#357=EDGE_CURVE('',#258,#289,#183,.T.);
#358=EDGE_CURVE('',#289,#289,#61,.T.);
#359=EDGE_CURVE('',#256,#290,#184,.T.);
#360=EDGE_CURVE('',#290,#290,#62,.T.);
#361=EDGE_CURVE('',#244,#270,#185,.T.);
#362=EDGE_CURVE('',#243,#269,#186,.T.);
#363=EDGE_CURVE('',#291,#291,#63,.T.);
#364=EDGE_CURVE('',#291,#279,#187,.T.);
#365=EDGE_CURVE('',#292,#292,#64,.T.);
#366=EDGE_CURVE('',#292,#278,#188,.T.);
#367=EDGE_CURVE('',#293,#293,#65,.T.);
#368=EDGE_CURVE('',#293,#280,#189,.T.);
#369=EDGE_CURVE('',#294,#294,#66,.T.);
#370=EDGE_CURVE('',#294,#277,#190,.T.);
#371=ORIENTED_EDGE('',*,*,#295,.F.);
#372=ORIENTED_EDGE('',*,*,#296,.F.);
#373=ORIENTED_EDGE('',*,*,#297,.F.);
#374=ORIENTED_EDGE('',*,*,#298,.F.);
#375=ORIENTED_EDGE('',*,*,#299,.T.);
#376=ORIENTED_EDGE('',*,*,#300,.T.);
#377=ORIENTED_EDGE('',*,*,#301,.T.);
#378=ORIENTED_EDGE('',*,*,#302,.T.);
#379=ORIENTED_EDGE('',*,*,#303,.T.);
#380=ORIENTED_EDGE('',*,*,#304,.T.);
#381=ORIENTED_EDGE('',*,*,#305,.T.);
#382=ORIENTED_EDGE('',*,*,#306,.T.);
#383=ORIENTED_EDGE('',*,*,#307,.T.);
#384=ORIENTED_EDGE('',*,*,#308,.T.);
#385=ORIENTED_EDGE('',*,*,#309,.T.);
#386=ORIENTED_EDGE('',*,*,#310,.T.);
#387=ORIENTED_EDGE('',*,*,#311,.T.);
#388=ORIENTED_EDGE('',*,*,#312,.T.);
#389=ORIENTED_EDGE('',*,*,#299,.F.);
#390=ORIENTED_EDGE('',*,*,#313,.T.);
#391=ORIENTED_EDGE('',*,*,#312,.F.);
#392=ORIENTED_EDGE('',*,*,#314,.F.);
#393=ORIENTED_EDGE('',*,*,#315,.F.);
#394=ORIENTED_EDGE('',*,*,#316,.T.);
#395=ORIENTED_EDGE('',*,*,#317,.T.);
#396=ORIENTED_EDGE('',*,*,#300,.F.);
#397=ORIENTED_EDGE('',*,*,#311,.F.);
#398=ORIENTED_EDGE('',*,*,#318,.T.);
#399=ORIENTED_EDGE('',*,*,#319,.F.);
#400=ORIENTED_EDGE('',*,*,#320,.T.);
#401=ORIENTED_EDGE('',*,*,#321,.T.);
#402=ORIENTED_EDGE('',*,*,#322,.T.);
#403=ORIENTED_EDGE('',*,*,#323,.T.);
#404=ORIENTED_EDGE('',*,*,#324,.T.);
#405=ORIENTED_EDGE('',*,*,#325,.T.);
#406=ORIENTED_EDGE('',*,*,#326,.T.);
#407=ORIENTED_EDGE('',*,*,#327,.T.);
#408=ORIENTED_EDGE('',*,*,#328,.T.);
#409=ORIENTED_EDGE('',*,*,#329,.F.);
#410=ORIENTED_EDGE('',*,*,#330,.T.);
#411=ORIENTED_EDGE('',*,*,#331,.F.);
#412=ORIENTED_EDGE('',*,*,#314,.T.);
#413=ORIENTED_EDGE('',*,*,#332,.T.);
#414=ORIENTED_EDGE('',*,*,#333,.T.);
#415=ORIENTED_EDGE('',*,*,#334,.T.);
#416=ORIENTED_EDGE('',*,*,#335,.T.);
#417=ORIENTED_EDGE('',*,*,#331,.T.);
#418=ORIENTED_EDGE('',*,*,#336,.T.);
#419=ORIENTED_EDGE('',*,*,#337,.F.);
#420=ORIENTED_EDGE('',*,*,#338,.T.);
#421=ORIENTED_EDGE('',*,*,#301,.F.);
#422=ORIENTED_EDGE('',*,*,#317,.F.);
#423=ORIENTED_EDGE('',*,*,#316,.F.);
#424=ORIENTED_EDGE('',*,*,#315,.T.);
#425=ORIENTED_EDGE('',*,*,#336,.F.);
#426=ORIENTED_EDGE('',*,*,#330,.F.);
#427=ORIENTED_EDGE('',*,*,#339,.F.);
#428=ORIENTED_EDGE('',*,*,#302,.F.);
#429=ORIENTED_EDGE('',*,*,#338,.F.);
#430=ORIENTED_EDGE('',*,*,#337,.T.);
#431=ORIENTED_EDGE('',*,*,#329,.T.);
#432=ORIENTED_EDGE('',*,*,#340,.T.);
#433=ORIENTED_EDGE('',*,*,#303,.F.);
#434=ORIENTED_EDGE('',*,*,#339,.T.);
#435=ORIENTED_EDGE('',*,*,#340,.F.);
#436=ORIENTED_EDGE('',*,*,#328,.F.);
#437=ORIENTED_EDGE('',*,*,#341,.T.);
#438=ORIENTED_EDGE('',*,*,#342,.T.);
#439=ORIENTED_EDGE('',*,*,#343,.T.);
#440=ORIENTED_EDGE('',*,*,#320,.F.);
#441=ORIENTED_EDGE('',*,*,#344,.F.);
#442=ORIENTED_EDGE('',*,*,#304,.F.);
#443=ORIENTED_EDGE('',*,*,#319,.T.);
#444=ORIENTED_EDGE('',*,*,#345,.T.);
#445=ORIENTED_EDGE('',*,*,#305,.F.);
#446=ORIENTED_EDGE('',*,*,#344,.T.);
#447=ORIENTED_EDGE('',*,*,#313,.F.);
#448=ORIENTED_EDGE('',*,*,#306,.F.);
#449=ORIENTED_EDGE('',*,*,#345,.F.);
#450=ORIENTED_EDGE('',*,*,#318,.F.);
#451=ORIENTED_EDGE('',*,*,#321,.F.);
#452=ORIENTED_EDGE('',*,*,#343,.F.);
#453=ORIENTED_EDGE('',*,*,#346,.T.);
#454=ORIENTED_EDGE('',*,*,#347,.F.);
#455=ORIENTED_EDGE('',*,*,#327,.F.);
#456=ORIENTED_EDGE('',*,*,#348,.F.);
#457=ORIENTED_EDGE('',*,*,#349,.T.);
#458=ORIENTED_EDGE('',*,*,#341,.F.);
#459=ORIENTED_EDGE('',*,*,#350,.F.);
#460=ORIENTED_EDGE('',*,*,#346,.F.);
#461=ORIENTED_EDGE('',*,*,#342,.F.);
#462=ORIENTED_EDGE('',*,*,#349,.F.);
#463=ORIENTED_EDGE('',*,*,#347,.T.);
#464=ORIENTED_EDGE('',*,*,#350,.T.);
#465=ORIENTED_EDGE('',*,*,#348,.T.);
#466=ORIENTED_EDGE('',*,*,#326,.F.);
#467=ORIENTED_EDGE('',*,*,#351,.F.);
#468=ORIENTED_EDGE('',*,*,#297,.T.);
#469=ORIENTED_EDGE('',*,*,#352,.T.);
#470=ORIENTED_EDGE('',*,*,#322,.F.);
#471=ORIENTED_EDGE('',*,*,#309,.F.);
#472=ORIENTED_EDGE('',*,*,#353,.T.);
#473=ORIENTED_EDGE('',*,*,#354,.T.);
#474=ORIENTED_EDGE('',*,*,#353,.F.);
#475=ORIENTED_EDGE('',*,*,#307,.F.);
#476=ORIENTED_EDGE('',*,*,#355,.T.);
#477=ORIENTED_EDGE('',*,*,#356,.T.);
#478=ORIENTED_EDGE('',*,*,#355,.F.);
#479=ORIENTED_EDGE('',*,*,#310,.F.);
#480=ORIENTED_EDGE('',*,*,#357,.T.);
#481=ORIENTED_EDGE('',*,*,#358,.T.);
#482=ORIENTED_EDGE('',*,*,#357,.F.);
#483=ORIENTED_EDGE('',*,*,#308,.F.);
#484=ORIENTED_EDGE('',*,*,#359,.T.);
#485=ORIENTED_EDGE('',*,*,#360,.T.);
#486=ORIENTED_EDGE('',*,*,#359,.F.);
#487=ORIENTED_EDGE('',*,*,#295,.T.);
#488=ORIENTED_EDGE('',*,*,#361,.T.);
#489=ORIENTED_EDGE('',*,*,#324,.F.);
#490=ORIENTED_EDGE('',*,*,#362,.F.);
#491=ORIENTED_EDGE('',*,*,#296,.T.);
#492=ORIENTED_EDGE('',*,*,#362,.T.);
#493=ORIENTED_EDGE('',*,*,#323,.F.);
#494=ORIENTED_EDGE('',*,*,#352,.F.);
#495=ORIENTED_EDGE('',*,*,#298,.T.);
#496=ORIENTED_EDGE('',*,*,#351,.T.);
#497=ORIENTED_EDGE('',*,*,#325,.F.);
#498=ORIENTED_EDGE('',*,*,#361,.F.);
#499=ORIENTED_EDGE('',*,*,#363,.T.);
#500=ORIENTED_EDGE('',*,*,#364,.T.);
#501=ORIENTED_EDGE('',*,*,#334,.F.);
#502=ORIENTED_EDGE('',*,*,#364,.F.);
#503=ORIENTED_EDGE('',*,*,#360,.F.);
#504=ORIENTED_EDGE('',*,*,#363,.F.);
#505=ORIENTED_EDGE('',*,*,#365,.T.);
#506=ORIENTED_EDGE('',*,*,#366,.T.);
#507=ORIENTED_EDGE('',*,*,#333,.F.);
#508=ORIENTED_EDGE('',*,*,#366,.F.);
#509=ORIENTED_EDGE('',*,*,#358,.F.);
#510=ORIENTED_EDGE('',*,*,#365,.F.);
#511=ORIENTED_EDGE('',*,*,#367,.T.);
#512=ORIENTED_EDGE('',*,*,#368,.T.);
#513=ORIENTED_EDGE('',*,*,#335,.F.);
#514=ORIENTED_EDGE('',*,*,#368,.F.);
#515=ORIENTED_EDGE('',*,*,#356,.F.);
#516=ORIENTED_EDGE('',*,*,#367,.F.);
#517=ORIENTED_EDGE('',*,*,#369,.T.);
#518=ORIENTED_EDGE('',*,*,#370,.T.);
#519=ORIENTED_EDGE('',*,*,#332,.F.);
#520=ORIENTED_EDGE('',*,*,#370,.F.);
#521=ORIENTED_EDGE('',*,*,#354,.F.);
#522=ORIENTED_EDGE('',*,*,#369,.F.);
#523=PLANE('',#586);
#524=PLANE('',#587);
#525=PLANE('',#598);
#526=PLANE('',#599);
#527=PLANE('',#608);
#528=PLANE('',#610);
#529=PLANE('',#612);
#530=PLANE('',#613);
#531=PLANE('',#614);
#532=PLANE('',#615);
#533=PLANE('',#616);
#534=PLANE('',#625);
#535=PLANE('',#626);
#536=PLANE('',#627);
#537=PLANE('',#630);
#538=PLANE('',#633);
#539=PLANE('',#636);
#540=PLANE('',#639);
#541=ADVANCED_FACE('',(#67),#523,.F.);
#542=ADVANCED_FACE('',(#68,#31,#32,#33,#34),#524,.T.);
#543=ADVANCED_FACE('',(#69),#19,.T.);
#544=ADVANCED_FACE('',(#70),#525,.T.);
#545=ADVANCED_FACE('',(#71,#35,#36,#37,#38),#526,.T.);
#546=ADVANCED_FACE('',(#72),#20,.T.);
#547=ADVANCED_FACE('',(#73),#527,.T.);
#548=ADVANCED_FACE('',(#74),#21,.T.);
#549=ADVANCED_FACE('',(#75),#528,.T.);
#550=ADVANCED_FACE('',(#76),#22,.T.);
#551=ADVANCED_FACE('',(#77),#529,.T.);
#552=ADVANCED_FACE('',(#78),#530,.F.);
#553=ADVANCED_FACE('',(#79),#531,.F.);
#554=ADVANCED_FACE('',(#80),#532,.F.);
#555=ADVANCED_FACE('',(#81),#533,.T.);
#556=ADVANCED_FACE('',(#82),#23,.F.);
#557=ADVANCED_FACE('',(#83),#24,.F.);
#558=ADVANCED_FACE('',(#84),#25,.F.);
#559=ADVANCED_FACE('',(#85),#26,.F.);
#560=ADVANCED_FACE('',(#86),#534,.T.);
#561=ADVANCED_FACE('',(#87),#535,.T.);
#562=ADVANCED_FACE('',(#88),#536,.T.);
#563=ADVANCED_FACE('',(#89),#27,.F.);
#564=ADVANCED_FACE('',(#90,#39),#537,.F.);
#565=ADVANCED_FACE('',(#91),#28,.F.);
#566=ADVANCED_FACE('',(#92,#40),#538,.F.);
#567=ADVANCED_FACE('',(#93),#29,.F.);
#568=ADVANCED_FACE('',(#94,#41),#539,.F.);
#569=ADVANCED_FACE('',(#95),#30,.F.);
#570=ADVANCED_FACE('',(#96,#42),#540,.F.);
#571=CLOSED_SHELL('',(#541,#542,#543,#544,#545,#546,#547,#548,#549,#550,
#551,#552,#553,#554,#555,#556,#557,#558,#559,#560,#561,#562,#563,#564,#565,
#566,#567,#568,#569,#570));
#572=DERIVED_UNIT_ELEMENT(#574,1.);
#573=DERIVED_UNIT_ELEMENT(#975,-3.);
#574=(
MASS_UNIT()
NAMED_UNIT(*)
SI_UNIT(.KILO.,.GRAM.)
);
#575=DERIVED_UNIT((#572,#573));
#576=MEASURE_REPRESENTATION_ITEM('density measure',
POSITIVE_RATIO_MEASURE(7850.),#575);
#577=PROPERTY_DEFINITION_REPRESENTATION(#582,#579);
#578=PROPERTY_DEFINITION_REPRESENTATION(#583,#580);
#579=REPRESENTATION('material name',(#581),#972);
#580=REPRESENTATION('density',(#576),#972);
#581=DESCRIPTIVE_REPRESENTATION_ITEM('Acciaio','Acciaio');
#582=PROPERTY_DEFINITION('material property','material name',#987);
#583=PROPERTY_DEFINITION('material property','density of part',#987);
#584=AXIS2_PLACEMENT_3D('',#807,#641,#642);
#585=AXIS2_PLACEMENT_3D('',#808,#643,#644);
#586=AXIS2_PLACEMENT_3D('',#809,#645,#646);
#587=AXIS2_PLACEMENT_3D('',#818,#651,#652);
#588=AXIS2_PLACEMENT_3D('',#821,#653,#654);
#589=AXIS2_PLACEMENT_3D('',#825,#656,#657);
#590=AXIS2_PLACEMENT_3D('',#829,#659,#660);
#591=AXIS2_PLACEMENT_3D('',#833,#662,#663);
#592=AXIS2_PLACEMENT_3D('',#836,#665,#666);
#593=AXIS2_PLACEMENT_3D('',#838,#667,#668);
#594=AXIS2_PLACEMENT_3D('',#840,#669,#670);
#595=AXIS2_PLACEMENT_3D('',#842,#671,#672);
#596=AXIS2_PLACEMENT_3D('',#843,#673,#674);
#597=AXIS2_PLACEMENT_3D('',#846,#675,#676);
#598=AXIS2_PLACEMENT_3D('',#849,#679,#680);
#599=AXIS2_PLACEMENT_3D('',#857,#685,#686);
#600=AXIS2_PLACEMENT_3D('',#861,#688,#689);
#601=AXIS2_PLACEMENT_3D('',#881,#699,#700);
#602=AXIS2_PLACEMENT_3D('',#884,#702,#703);
#603=AXIS2_PLACEMENT_3D('',#886,#704,#705);
#604=AXIS2_PLACEMENT_3D('',#888,#706,#707);
#605=AXIS2_PLACEMENT_3D('',#890,#708,#709);
#606=AXIS2_PLACEMENT_3D('',#892,#710,#711);
#607=AXIS2_PLACEMENT_3D('',#893,#712,#713);
#608=AXIS2_PLACEMENT_3D('',#899,#717,#718);
#609=AXIS2_PLACEMENT_3D('',#901,#720,#721);
#610=AXIS2_PLACEMENT_3D('',#903,#723,#724);
#611=AXIS2_PLACEMENT_3D('',#910,#729,#730);
#612=AXIS2_PLACEMENT_3D('',#912,#732,#733);
#613=AXIS2_PLACEMENT_3D('',#913,#734,#735);
#614=AXIS2_PLACEMENT_3D('',#917,#738,#739);
#615=AXIS2_PLACEMENT_3D('',#921,#742,#743);
#616=AXIS2_PLACEMENT_3D('',#923,#745,#746);
#617=AXIS2_PLACEMENT_3D('',#926,#749,#750);
#618=AXIS2_PLACEMENT_3D('',#929,#752,#753);
#619=AXIS2_PLACEMENT_3D('',#930,#754,#755);
#620=AXIS2_PLACEMENT_3D('',#933,#757,#758);
#621=AXIS2_PLACEMENT_3D('',#934,#759,#760);
#622=AXIS2_PLACEMENT_3D('',#937,#762,#763);
#623=AXIS2_PLACEMENT_3D('',#938,#764,#765);
#624=AXIS2_PLACEMENT_3D('',#941,#767,#768);
#625=AXIS2_PLACEMENT_3D('',#942,#769,#770);
#626=AXIS2_PLACEMENT_3D('',#945,#773,#774);
#627=AXIS2_PLACEMENT_3D('',#946,#775,#776);
#628=AXIS2_PLACEMENT_3D('',#947,#777,#778);
#629=AXIS2_PLACEMENT_3D('',#949,#779,#780);
#630=AXIS2_PLACEMENT_3D('',#951,#782,#783);
#631=AXIS2_PLACEMENT_3D('',#952,#784,#785);
#632=AXIS2_PLACEMENT_3D('',#954,#786,#787);
#633=AXIS2_PLACEMENT_3D('',#956,#789,#790);
#634=AXIS2_PLACEMENT_3D('',#957,#791,#792);
#635=AXIS2_PLACEMENT_3D('',#959,#793,#794);
#636=AXIS2_PLACEMENT_3D('',#961,#796,#797);
#637=AXIS2_PLACEMENT_3D('',#962,#798,#799);
#638=AXIS2_PLACEMENT_3D('',#964,#800,#801);
#639=AXIS2_PLACEMENT_3D('',#966,#803,#804);
#640=AXIS2_PLACEMENT_3D('',#967,#805,#806);
#641=DIRECTION('axis',(0.,0.,1.));
#642=DIRECTION('refdir',(1.,0.,0.));
#643=DIRECTION('axis',(0.,0.,1.));
#644=DIRECTION('refdir',(1.,0.,0.));
#645=DIRECTION('center_axis',(0.,0.,-1.));
#646=DIRECTION('ref_axis',(1.,0.,0.));
#647=DIRECTION('',(-1.,0.,0.));
#648=DIRECTION('',(0.,-1.,0.));
#649=DIRECTION('',(1.,0.,0.));
#650=DIRECTION('',(0.,1.,0.));
#651=DIRECTION('center_axis',(0.,0.,-1.));
#652=DIRECTION('ref_axis',(1.,0.,0.));
#653=DIRECTION('center_axis',(0.,0.,-1.));
#654=DIRECTION('ref_axis',(1.,-2.99760216648791E-15,0.));
#655=DIRECTION('',(-1.,1.32958775037182E-17,0.));
#656=DIRECTION('center_axis',(0.,0.,-1.));
#657=DIRECTION('ref_axis',(0.000259525016757828,-0.999999966323382,0.));
#658=DIRECTION('',(1.18738782543575E-17,1.,0.));
#659=DIRECTION('center_axis',(0.,0.,-1.));
#660=DIRECTION('ref_axis',(-1.,3.55271367880049E-15,0.));
#661=DIRECTION('',(1.,0.,0.));
#662=DIRECTION('center_axis',(0.,0.,-1.));
#663=DIRECTION('ref_axis',(5.32907051820073E-15,1.,0.));
#664=DIRECTION('',(1.89984688705909E-16,-1.,0.));
#665=DIRECTION('center_axis',(0.,0.,1.));
#666=DIRECTION('ref_axis',(1.,0.,0.));
#667=DIRECTION('center_axis',(0.,0.,1.));
#668=DIRECTION('ref_axis',(1.,0.,0.));
#669=DIRECTION('center_axis',(0.,0.,1.));
#670=DIRECTION('ref_axis',(1.,0.,0.));
#671=DIRECTION('center_axis',(0.,0.,1.));
#672=DIRECTION('ref_axis',(1.,0.,0.));
#673=DIRECTION('center_axis',(0.,0.,1.));
#674=DIRECTION('ref_axis',(0.707106781186548,-0.707106781186548,0.));
#675=DIRECTION('center_axis',(0.,0.,-1.));
#676=DIRECTION('ref_axis',(0.707106781186548,-0.707106781186548,0.));
#677=DIRECTION('',(0.,0.,-1.));
#678=DIRECTION('',(0.,0.,1.));
#679=DIRECTION('center_axis',(0.,-1.,0.));
#680=DIRECTION('ref_axis',(1.,0.,0.));
#681=DIRECTION('',(1.,0.,0.));
#682=DIRECTION('',(0.,0.,1.));
#683=DIRECTION('',(1.,0.,0.));
#684=DIRECTION('',(0.,0.,-1.));
#685=DIRECTION('center_axis',(0.,0.,1.));
#686=DIRECTION('ref_axis',(1.,0.,0.));
#687=DIRECTION('',(0.,1.,0.));
#688=DIRECTION('center_axis',(0.,0.,-1.));
#689=DIRECTION('ref_axis',(0.707106781186548,0.707106781186548,0.));
#690=DIRECTION('',(-1.,0.,0.));
#691=DIRECTION('',(0.,-1.,0.));
#692=DIRECTION('',(1.,0.,0.));
#693=DIRECTION('',(0.,-1.,0.));
#694=DIRECTION('',(-1.,0.,0.));
#695=DIRECTION('',(0.,1.,0.));
#696=DIRECTION('',(1.,0.,0.));
#697=DIRECTION('',(0.,1.,0.));
#698=DIRECTION('',(-1.,0.,0.));
#699=DIRECTION('center_axis',(0.,0.,-1.));
#700=DIRECTION('ref_axis',(-0.707106781186548,0.707106781186548,0.));
#701=DIRECTION('',(0.,-1.,0.));
#702=DIRECTION('center_axis',(0.,0.,-1.));
#703=DIRECTION('ref_axis',(-0.707106781186548,-0.707106781186548,0.));
#704=DIRECTION('center_axis',(0.,0.,-1.));
#705=DIRECTION('ref_axis',(1.,0.,0.));
#706=DIRECTION('center_axis',(0.,0.,-1.));
#707=DIRECTION('ref_axis',(1.,0.,0.));
#708=DIRECTION('center_axis',(0.,0.,-1.));
#709=DIRECTION('ref_axis',(1.,0.,0.));
#710=DIRECTION('center_axis',(0.,0.,-1.));
#711=DIRECTION('ref_axis',(1.,0.,0.));
#712=DIRECTION('center_axis',(0.,0.,1.));
#713=DIRECTION('ref_axis',(-0.707106781186548,-0.707106781186548,0.));
#714=DIRECTION('',(0.,0.,-1.));
#715=DIRECTION('',(0.,-1.,0.));
#716=DIRECTION('',(0.,0.,-1.));
#717=DIRECTION('center_axis',(-1.,0.,0.));
#718=DIRECTION('ref_axis',(0.,-1.,0.));
#719=DIRECTION('',(0.,0.,1.));
#720=DIRECTION('center_axis',(0.,0.,1.));
#721=DIRECTION('ref_axis',(-0.707106781186548,0.707106781186548,0.));
#722=DIRECTION('',(0.,0.,-1.));
#723=DIRECTION('center_axis',(0.,1.,0.));
#724=DIRECTION('ref_axis',(-1.,0.,0.));
#725=DIRECTION('',(0.,0.,-1.));
#726=DIRECTION('',(1.,0.,0.));
#727=DIRECTION('',(0.,0.,1.));
#728=DIRECTION('',(0.,0.,1.));
#729=DIRECTION('center_axis',(0.,0.,1.));
#730=DIRECTION('ref_axis',(0.707106781186548,0.707106781186548,0.));
#731=DIRECTION('',(0.,0.,-1.));
#732=DIRECTION('center_axis',(1.,0.,0.));
#733=DIRECTION('ref_axis',(0.,1.,0.));
#734=DIRECTION('center_axis',(1.,0.,0.));
#735=DIRECTION('ref_axis',(0.,-1.,0.));
#736=DIRECTION('',(0.,-1.,0.));
#737=DIRECTION('',(0.,0.,-1.));
#738=DIRECTION('center_axis',(-1.,0.,0.));
#739=DIRECTION('ref_axis',(0.,1.,0.));
#740=DIRECTION('',(0.,0.,1.));
#741=DIRECTION('',(0.,1.,0.));
#742=DIRECTION('center_axis',(0.,0.,-1.));
#743=DIRECTION('ref_axis',(-1.,0.,0.));
#744=DIRECTION('',(-1.,0.,0.));
#745=DIRECTION('center_axis',(0.,-1.,0.));
#746=DIRECTION('ref_axis',(1.,0.,0.));
#747=DIRECTION('',(0.,0.,1.));
#748=DIRECTION('',(0.,0.,1.));
#749=DIRECTION('center_axis',(0.,0.,1.));
#750=DIRECTION('ref_axis',(1.,0.,0.));
#751=DIRECTION('',(0.,0.,1.));
#752=DIRECTION('center_axis',(0.,0.,1.));
#753=DIRECTION('ref_axis',(1.,0.,0.));
#754=DIRECTION('center_axis',(0.,0.,1.));
#755=DIRECTION('ref_axis',(1.,0.,0.));
#756=DIRECTION('',(0.,0.,1.));
#757=DIRECTION('center_axis',(0.,0.,1.));
#758=DIRECTION('ref_axis',(1.,0.,0.));
#759=DIRECTION('center_axis',(0.,0.,1.));
#760=DIRECTION('ref_axis',(1.,0.,0.));
#761=DIRECTION('',(0.,0.,1.));
#762=DIRECTION('center_axis',(0.,0.,1.));
#763=DIRECTION('ref_axis',(1.,0.,0.));
#764=DIRECTION('center_axis',(0.,0.,1.));
#765=DIRECTION('ref_axis',(1.,0.,0.));
#766=DIRECTION('',(0.,0.,1.));
#767=DIRECTION('center_axis',(0.,0.,1.));
#768=DIRECTION('ref_axis',(1.,0.,0.));
#769=DIRECTION('center_axis',(0.,1.,0.));
#770=DIRECTION('ref_axis',(-1.,0.,0.));
#771=DIRECTION('',(0.,0.,1.));
#772=DIRECTION('',(0.,0.,1.));
#773=DIRECTION('center_axis',(-1.,0.,0.));
#774=DIRECTION('ref_axis',(0.,-1.,0.));
#775=DIRECTION('center_axis',(1.,0.,0.));
#776=DIRECTION('ref_axis',(0.,1.,0.));
#777=DIRECTION('center_axis',(0.,0.,1.));
#778=DIRECTION('ref_axis',(1.,0.,0.));
#779=DIRECTION('center_axis',(0.,0.,-1.));
#780=DIRECTION('ref_axis',(1.,0.,0.));
#781=DIRECTION('',(0.,0.,1.));
#782=DIRECTION('center_axis',(0.,0.,1.));
#783=DIRECTION('ref_axis',(1.,0.,0.));
#784=DIRECTION('center_axis',(0.,0.,1.));
#785=DIRECTION('ref_axis',(1.,0.,0.));
#786=DIRECTION('center_axis',(0.,0.,-1.));
#787=DIRECTION('ref_axis',(1.,0.,0.));
#788=DIRECTION('',(0.,0.,1.));
#789=DIRECTION('center_axis',(0.,0.,1.));
#790=DIRECTION('ref_axis',(1.,0.,0.));
#791=DIRECTION('center_axis',(0.,0.,1.));
#792=DIRECTION('ref_axis',(1.,0.,0.));
#793=DIRECTION('center_axis',(0.,0.,-1.));
#794=DIRECTION('ref_axis',(1.,0.,0.));
#795=DIRECTION('',(0.,0.,1.));
#796=DIRECTION('center_axis',(0.,0.,1.));
#797=DIRECTION('ref_axis',(1.,0.,0.));
#798=DIRECTION('center_axis',(0.,0.,1.));
#799=DIRECTION('ref_axis',(1.,0.,0.));
#800=DIRECTION('center_axis',(0.,0.,-1.));
#801=DIRECTION('ref_axis',(1.,0.,0.));
#802=DIRECTION('',(0.,0.,1.));
#803=DIRECTION('center_axis',(0.,0.,1.));
#804=DIRECTION('ref_axis',(1.,0.,0.));
#805=DIRECTION('',(0.,0.,1.));
#806=DIRECTION('',(1.,0.,0.));
#807=CARTESIAN_POINT('',(0.,0.,0.));
#808=CARTESIAN_POINT('',(0.,0.,0.));
#809=CARTESIAN_POINT('Origin',(37.2499999158085,42.2499999158084,0.));
#810=CARTESIAN_POINT('',(74.5,0.,0.));
#811=CARTESIAN_POINT('',(0.,0.,0.));
#812=CARTESIAN_POINT('',(0.,0.,0.));
#813=CARTESIAN_POINT('',(74.5,84.5,0.));
#814=CARTESIAN_POINT('',(74.5,0.,0.));
#815=CARTESIAN_POINT('',(0.,84.5,0.));
#816=CARTESIAN_POINT('',(74.5,84.5,0.));
#817=CARTESIAN_POINT('',(0.,84.5,0.));
#818=CARTESIAN_POINT('Origin',(37.2499999158085,42.2499999158084,-1.));
#819=CARTESIAN_POINT('',(84.,-4.50000000000003,-1.));
#820=CARTESIAN_POINT('',(79.,-9.50000000000003,-1.));
#821=CARTESIAN_POINT('Origin',(79.,-4.50000000000002,-1.));
#822=CARTESIAN_POINT('',(-4.49870237487252,-9.50000000000003,-1.));
#823=CARTESIAN_POINT('',(79.,-9.50000000000003,-1.));
#824=CARTESIAN_POINT('',(-9.50000000000001,-4.49870237487682,-1.));
#825=CARTESIAN_POINT('Origin',(-4.50000000000001,-4.50000000000003,-1.));
#826=CARTESIAN_POINT('',(-9.50000000000001,89.,-1.));
#827=CARTESIAN_POINT('',(-9.50000000000001,-4.50129762512324,-1.));
#828=CARTESIAN_POINT('',(-4.50000000000001,94.,-1.));
#829=CARTESIAN_POINT('Origin',(-4.5,89.,-1.));
#830=CARTESIAN_POINT('',(79.,94.,-1.));
#831=CARTESIAN_POINT('',(-4.50000000000001,94.,-1.));
#832=CARTESIAN_POINT('',(84.,89.,-1.));
#833=CARTESIAN_POINT('Origin',(79.,89.,-1.));
#834=CARTESIAN_POINT('',(84.,89.,-1.));
#835=CARTESIAN_POINT('',(-7.50000000000001,-4.50000000000003,-1.));
#836=CARTESIAN_POINT('Origin',(-4.50000000000001,-4.50000000000003,-1.));
#837=CARTESIAN_POINT('',(-7.50000000000001,89.0000013262033,-1.));
#838=CARTESIAN_POINT('Origin',(-4.50000000000001,89.0000013262033,-1.));
#839=CARTESIAN_POINT('',(76.,-4.50000000000002,-1.));
#840=CARTESIAN_POINT('Origin',(79.,-4.50000000000002,-1.));
#841=CARTESIAN_POINT('',(76.0000011771917,89.,-1.));
#842=CARTESIAN_POINT('Origin',(79.0000011771917,89.,-1.));
#843=CARTESIAN_POINT('Origin',(79.,-4.50000000000003,0.));
#844=CARTESIAN_POINT('',(84.,-4.50000000000003,13.));
#845=CARTESIAN_POINT('',(79.,-9.50000000000003,13.));
#846=CARTESIAN_POINT('Origin',(79.,-4.50000000000003,13.));
#847=CARTESIAN_POINT('',(79.,-9.50000000000003,0.));
#848=CARTESIAN_POINT('',(84.,-4.50000000000003,0.));
#849=CARTESIAN_POINT('Origin',(-9.50000000000001,-9.50000000000003,0.));
#850=CARTESIAN_POINT('',(-4.50000000000001,-9.50000000000003,13.));
#851=CARTESIAN_POINT('',(-9.50000000000001,-9.50000000000003,13.));
#852=CARTESIAN_POINT('',(-4.50000000000001,-9.50000000000003,0.));
#853=CARTESIAN_POINT('',(-4.50000000000001,-9.50000000000003,0.));
#854=CARTESIAN_POINT('',(-4.49870237487252,-9.50000000000003,0.));
#855=CARTESIAN_POINT('',(-9.50000000000001,-9.50000000000003,0.));
#856=CARTESIAN_POINT('',(-4.49870237487252,-9.50000000000003,0.));
#857=CARTESIAN_POINT('Origin',(79.,-4.50000000000003,13.));
#858=CARTESIAN_POINT('',(84.,89.,13.));
#859=CARTESIAN_POINT('',(84.,-9.50000000000003,13.));
#860=CARTESIAN_POINT('',(79.,94.,13.));
#861=CARTESIAN_POINT('Origin',(79.,89.,13.));
#862=CARTESIAN_POINT('',(65.75,94.,13.));
#863=CARTESIAN_POINT('',(84.,94.,13.));
#864=CARTESIAN_POINT('',(65.75,84.5,13.));
#865=CARTESIAN_POINT('',(65.75,44.75,13.));
#866=CARTESIAN_POINT('',(74.5,84.5,13.));
#867=CARTESIAN_POINT('',(74.5,84.5,13.));
#868=CARTESIAN_POINT('',(74.5,0.,13.));
#869=CARTESIAN_POINT('',(74.5,0.,13.));
#870=CARTESIAN_POINT('',(0.,0.,13.));
#871=CARTESIAN_POINT('',(0.,0.,13.));
#872=CARTESIAN_POINT('',(0.,84.5,13.));
#873=CARTESIAN_POINT('',(0.,84.5,13.));
#874=CARTESIAN_POINT('',(47.25,84.5,13.));
#875=CARTESIAN_POINT('',(74.5,84.5,13.));
#876=CARTESIAN_POINT('',(47.25,94.,13.));
#877=CARTESIAN_POINT('',(47.25,40.,13.));
#878=CARTESIAN_POINT('',(-4.50000000000001,94.,13.));
#879=CARTESIAN_POINT('',(84.,94.,13.));
#880=CARTESIAN_POINT('',(-9.50000000000001,89.,13.));
#881=CARTESIAN_POINT('Origin',(-4.50000000000001,89.,13.));
#882=CARTESIAN_POINT('',(-9.50000000000001,-4.50000000000003,13.));
#883=CARTESIAN_POINT('',(-9.50000000000001,94.,13.));
#884=CARTESIAN_POINT('Origin',(-4.50000000000001,-4.50000000000003,13.));
#885=CARTESIAN_POINT('',(77.3,-4.50000000000003,13.));
#886=CARTESIAN_POINT('Origin',(79.,-4.50000000000003,13.));
#887=CARTESIAN_POINT('',(77.3000011771917,89.,13.));
#888=CARTESIAN_POINT('Origin',(79.0000011771917,89.,13.));
#889=CARTESIAN_POINT('',(-6.20000000000001,89.0000013262033,13.));
#890=CARTESIAN_POINT('Origin',(-4.50000000000001,89.0000013262033,13.));
#891=CARTESIAN_POINT('',(-6.20000000000001,-4.50000000000003,13.));
#892=CARTESIAN_POINT('Origin',(-4.50000000000001,-4.50000000000003,13.));
#893=CARTESIAN_POINT('Origin',(-4.50000000000001,-4.50000000000003,0.));
#894=CARTESIAN_POINT('',(-9.50000000000001,-4.50000000000003,0.));
#895=CARTESIAN_POINT('',(-9.50000000000001,-4.50000000000003,0.));
#896=CARTESIAN_POINT('',(-9.50000000000001,-4.49870237487682,0.));
#897=CARTESIAN_POINT('',(-9.50000000000001,94.,0.));
#898=CARTESIAN_POINT('',(-9.50000000000001,-4.49870237487682,0.));
#899=CARTESIAN_POINT('Origin',(-9.50000000000001,94.,0.));
#900=CARTESIAN_POINT('',(-9.50000000000001,89.,0.));
#901=CARTESIAN_POINT('Origin',(-4.50000000000001,89.,0.));
#902=CARTESIAN_POINT('',(-4.50000000000001,94.,0.));
#903=CARTESIAN_POINT('Origin',(84.,94.,0.));
#904=CARTESIAN_POINT('',(47.25,94.,5.5));
#905=CARTESIAN_POINT('',(47.25,94.,6.5));
#906=CARTESIAN_POINT('',(65.75,94.,5.5));
#907=CARTESIAN_POINT('',(70.25,94.,5.5));
#908=CARTESIAN_POINT('',(65.75,94.,6.5));
#909=CARTESIAN_POINT('',(79.,94.,0.));
#910=CARTESIAN_POINT('Origin',(79.,89.,0.));
#911=CARTESIAN_POINT('',(84.,89.,0.));
#912=CARTESIAN_POINT('Origin',(84.,-9.50000000000003,0.));
#913=CARTESIAN_POINT('Origin',(65.75,94.,13.));
#914=CARTESIAN_POINT('',(65.75,84.5,5.5));
#915=CARTESIAN_POINT('',(65.75,94.,5.5));
#916=CARTESIAN_POINT('',(65.75,84.5,6.5));
#917=CARTESIAN_POINT('Origin',(47.25,84.5,13.));
#918=CARTESIAN_POINT('',(47.25,84.5,5.5));
#919=CARTESIAN_POINT('',(47.25,84.5,6.5));
#920=CARTESIAN_POINT('',(47.25,84.5,5.5));
#921=CARTESIAN_POINT('Origin',(56.5,89.25,5.5));
#922=CARTESIAN_POINT('',(28.25,84.5,5.5));
#923=CARTESIAN_POINT('Origin',(0.,84.5,0.));
#924=CARTESIAN_POINT('',(0.,84.5,0.));
#925=CARTESIAN_POINT('',(74.5,84.5,0.));
#926=CARTESIAN_POINT('Origin',(79.,-4.50000000000003,0.));
#927=CARTESIAN_POINT('',(76.,-4.50000000000003,3.1));
#928=CARTESIAN_POINT('',(76.,-4.50000000000003,0.));
#929=CARTESIAN_POINT('Origin',(79.,-4.50000000000003,3.1));
#930=CARTESIAN_POINT('Origin',(-4.50000000000001,-4.50000000000003,0.));
#931=CARTESIAN_POINT('',(-7.50000000000001,-4.50000000000003,3.1));
#932=CARTESIAN_POINT('',(-7.50000000000001,-4.50000000000003,0.));
#933=CARTESIAN_POINT('Origin',(-4.50000000000001,-4.50000000000003,3.1));
#934=CARTESIAN_POINT('Origin',(79.0000011771917,89.,0.));
#935=CARTESIAN_POINT('',(76.0000011771917,89.,3.1));
#936=CARTESIAN_POINT('',(76.0000011771917,89.,0.));
#937=CARTESIAN_POINT('Origin',(79.0000011771917,89.,3.1));
#938=CARTESIAN_POINT('Origin',(-4.50000000000001,89.0000013262033,0.));
#939=CARTESIAN_POINT('',(-7.50000000000002,89.0000013262033,3.1));
#940=CARTESIAN_POINT('',(-7.50000000000001,89.0000013262033,0.));
#941=CARTESIAN_POINT('Origin',(-4.50000000000001,89.0000013262033,3.1));
#942=CARTESIAN_POINT('Origin',(74.5,0.,0.));
#943=CARTESIAN_POINT('',(0.,0.,0.));
#944=CARTESIAN_POINT('',(74.5,0.,0.));
#945=CARTESIAN_POINT('Origin',(74.5,84.5,0.));
#946=CARTESIAN_POINT('Origin',(0.,0.,0.));
#947=CARTESIAN_POINT('Origin',(-4.50000000000001,89.0000013262033,3.1));
#948=CARTESIAN_POINT('',(-6.20000000000001,89.0000013262033,3.1));
#949=CARTESIAN_POINT('Origin',(-4.50000000000001,89.0000013262033,3.1));
#950=CARTESIAN_POINT('',(-6.20000000000001,89.0000013262033,3.1));
#951=CARTESIAN_POINT('Origin',(-4.50000000000001,89.0000013262033,3.1));
#952=CARTESIAN_POINT('Origin',(79.0000011771917,89.,3.1));
#953=CARTESIAN_POINT('',(77.3000011771917,89.,3.1));
#954=CARTESIAN_POINT('Origin',(79.0000011771917,89.,3.1));
#955=CARTESIAN_POINT('',(77.3000011771917,89.,3.1));
#956=CARTESIAN_POINT('Origin',(79.0000011771917,89.,3.1));
#957=CARTESIAN_POINT('Origin',(-4.50000000000001,-4.50000000000003,3.1));
#958=CARTESIAN_POINT('',(-6.20000000000001,-4.50000000000003,3.1));
#959=CARTESIAN_POINT('Origin',(-4.50000000000001,-4.50000000000003,3.1));
#960=CARTESIAN_POINT('',(-6.20000000000001,-4.50000000000003,3.1));
#961=CARTESIAN_POINT('Origin',(-4.50000000000001,-4.50000000000003,3.1));
#962=CARTESIAN_POINT('Origin',(79.,-4.50000000000003,3.1));
#963=CARTESIAN_POINT('',(77.3,-4.50000000000003,3.1));
#964=CARTESIAN_POINT('Origin',(79.,-4.50000000000003,3.1));
#965=CARTESIAN_POINT('',(77.3,-4.50000000000003,3.1));
#966=CARTESIAN_POINT('Origin',(79.,-4.50000000000003,3.1));
#967=CARTESIAN_POINT('',(0.,0.,0.));
#968=UNCERTAINTY_MEASURE_WITH_UNIT(LENGTH_MEASURE(0.01),#974,
'DISTANCE_ACCURACY_VALUE',
'Maximum model space distance between geometric entities at asserted c
onnectivities');
#969=UNCERTAINTY_MEASURE_WITH_UNIT(LENGTH_MEASURE(0.01),#974,
'DISTANCE_ACCURACY_VALUE',
'Maximum model space distance between geometric entities at asserted c
onnectivities');
#970=UNCERTAINTY_MEASURE_WITH_UNIT(LENGTH_MEASURE(0.01),#974,
'DISTANCE_ACCURACY_VALUE',
'Maximum model space distance between geometric entities at asserted c
onnectivities');
#971=(
GEOMETRIC_REPRESENTATION_CONTEXT(3)
GLOBAL_UNCERTAINTY_ASSIGNED_CONTEXT((#968))
GLOBAL_UNIT_ASSIGNED_CONTEXT((#974,#976,#977))
REPRESENTATION_CONTEXT('','3D')
);
#972=(
GEOMETRIC_REPRESENTATION_CONTEXT(3)
GLOBAL_UNCERTAINTY_ASSIGNED_CONTEXT((#969))
GLOBAL_UNIT_ASSIGNED_CONTEXT((#974,#976,#977))
REPRESENTATION_CONTEXT('','3D')
);
#973=(
GEOMETRIC_REPRESENTATION_CONTEXT(3)
GLOBAL_UNCERTAINTY_ASSIGNED_CONTEXT((#970))
GLOBAL_UNIT_ASSIGNED_CONTEXT((#974,#976,#977))
REPRESENTATION_CONTEXT('','3D')
);
#974=(
LENGTH_UNIT()
NAMED_UNIT(*)
SI_UNIT(.MILLI.,.METRE.)
);
#975=(
LENGTH_UNIT()
NAMED_UNIT(*)
SI_UNIT($,.METRE.)
);
#976=(
NAMED_UNIT(*)
PLANE_ANGLE_UNIT()
SI_UNIT($,.RADIAN.)
);
#977=(
NAMED_UNIT(*)
SI_UNIT($,.STERADIAN.)
SOLID_ANGLE_UNIT()
);
#978=SHAPE_DEFINITION_REPRESENTATION(#980,#983);
#979=SHAPE_DEFINITION_REPRESENTATION(#981,#984);
#980=PRODUCT_DEFINITION_SHAPE('',$,#986);
#981=PRODUCT_DEFINITION_SHAPE('',$,#987);
#982=PRODUCT_DEFINITION_SHAPE($,$,#14);
#983=SHAPE_REPRESENTATION('',(#584,#640),#971);
#984=SHAPE_REPRESENTATION('',(#585),#972);
#985=PRODUCT_DEFINITION_CONTEXT('part definition',#993,'design');
#986=PRODUCT_DEFINITION('2025-12-02-20-15-03-272','MK3 final',#988,#985);
#987=PRODUCT_DEFINITION('2025-12-02-20-20-55-475','MK3',#989,#985);
#988=PRODUCT_DEFINITION_FORMATION('',$,#995);
#989=PRODUCT_DEFINITION_FORMATION('',$,#996);
#990=PRODUCT_RELATED_PRODUCT_CATEGORY('MK3 final','MK3 final',(#995));
#991=PRODUCT_RELATED_PRODUCT_CATEGORY('MK3','MK3',(#996));
#992=APPLICATION_PROTOCOL_DEFINITION('international standard',
'automotive_design',2009,#993);
#993=APPLICATION_CONTEXT(
'Core Data for Automotive Mechanical Design Process');
#994=PRODUCT_CONTEXT('part definition',#993,'mechanical');
#995=PRODUCT('2025-12-02-20-15-03-272','MK3 final',$,(#994));
#996=PRODUCT('2025-12-02-20-20-55-475','MK3',$,(#994));
#997=PRESENTATION_STYLE_ASSIGNMENT((#999));
#998=PRESENTATION_STYLE_ASSIGNMENT((#1000));
#999=SURFACE_STYLE_USAGE(.BOTH.,#1001);
#1000=SURFACE_STYLE_USAGE(.BOTH.,#1002);
#1001=SURFACE_SIDE_STYLE('',(#1003));
#1002=SURFACE_SIDE_STYLE('',(#1004));
#1003=SURFACE_STYLE_FILL_AREA(#1005);
#1004=SURFACE_STYLE_FILL_AREA(#1006);
#1005=FILL_AREA_STYLE('Acciaio - Satinato',(#1007));
#1006=FILL_AREA_STYLE(
'EPX 150 - Cottura ad aria (con stampanti 3D Carbon M2 M3 L1)',(#1008));
#1007=FILL_AREA_STYLE_COLOUR('Acciaio - Satinato',#1009);
#1008=FILL_AREA_STYLE_COLOUR(
'EPX 150 - Cottura ad aria (con stampanti 3D Carbon M2 M3 L1)',#1010);
#1009=COLOUR_RGB('Acciaio - Satinato',0.627450980392157,0.627450980392157,
0.627450980392157);
#1010=COLOUR_RGB(
'EPX 150 - Cottura ad aria (con stampanti 3D Carbon M2 M3 L1)',0.247058823529412,
0.247058823529412,0.247058823529412);
ENDSEC;
END-ISO-10303-21;
